<svg id="visual" viewBox="0 0 960 540" width="960" height="540" xmlns="http://www.w3.org/2000/svg" xmlns:xlink="http://www.w3.org/1999/xlink" version="1.1"><rect x="0" y="0" width="960" height="540" fill="#e3dfd3"></rect><path d="M0 75L80 82L160 82L240 79L320 74L400 76L480 82L560 83L640 75L720 84L800 78L880 76L960 84L960 0L880 0L800 0L720 0L640 0L560 0L480 0L400 0L320 0L240 0L160 0L80 0L0 0Z" fill="#ff6f61"></path><path d="M0 72L80 74L160 72L240 67L320 74L400 64L480 60L560 66L640 71L720 61L800 65L880 73L960 68L960 0L880 0L800 0L720 0L640 0L560 0L480 0L400 0L320 0L240 0L160 0L80 0L0 0Z" fill="#f66062"></path><path d="M0 50L80 55L160 59L240 57L320 53L400 53L480 55L560 54L640 59L720 60L800 51L880 51L960 52L960 0L880 0L800 0L720 0L640 0L560 0L480 0L400 0L320 0L240 0L160 0L80 0L0 0Z" fill="#ec5163"></path><path d="M0 42L80 41L160 37L240 38L320 42L400 44L480 45L560 43L640 44L720 37L800 43L880 42L960 44L960 0L880 0L800 0L720 0L640 0L560 0L480 0L400 0L320 0L240 0L160 0L80 0L0 0Z" fill="#e04265"></path><path d="M0 26L80 26L160 27L240 29L320 26L400 28L480 30L560 31L640 23L720 30L800 26L880 32L960 24L960 0L880 0L800 0L720 0L640 0L560 0L480 0L400 0L320 0L240 0L160 0L80 0L0 0Z" fill="#d43266"></path><path d="M0 11L80 16L160 15L240 11L320 18L400 12L480 13L560 14L640 13L720 14L800 19L880 11L960 15L960 0L880 0L800 0L720 0L640 0L560 0L480 0L400 0L320 0L240 0L160 0L80 0L0 0Z" fill="#c62368"></path></svg>