<svg id="visual" viewBox="0 0 600 900" width="600" height="900" xmlns="http://www.w3.org/2000/svg" xmlns:xlink="http://www.w3.org/1999/xlink" version="1.1"><rect x="0" y="0" width="600" height="900" fill="#ffffff"></rect><path d="M0 274L14.3 269.3C28.7 264.7 57.3 255.3 85.8 251.5C114.3 247.7 142.7 249.3 171.2 241.7C199.7 234 228.3 217 257 223.3C285.7 229.7 314.3 259.3 343 265.7C371.7 272 400.3 255 428.8 241C457.3 227 485.7 216 514.2 217.2C542.7 218.3 571.3 231.7 585.7 238.3L600 245L600 0L585.7 0C571.3 0 542.7 0 514.2 0C485.7 0 457.3 0 428.8 0C400.3 0 371.7 0 343 0C314.3 0 285.7 0 257 0C228.3 0 199.7 0 171.2 0C142.7 0 114.3 0 85.8 0C57.3 0 28.7 0 14.3 0L0 0Z" fill="#ff6f61"></path><path d="M0 176L14.3 182.7C28.7 189.3 57.3 202.7 85.8 208.8C114.3 215 142.7 214 171.2 208.7C199.7 203.3 228.3 193.7 257 197.8C285.7 202 314.3 220 343 216C371.7 212 400.3 186 428.8 182.2C457.3 178.3 485.7 196.7 514.2 202.8C542.7 209 571.3 203 585.7 200L600 197L600 0L585.7 0C571.3 0 542.7 0 514.2 0C485.7 0 457.3 0 428.8 0C400.3 0 371.7 0 343 0C314.3 0 285.7 0 257 0C228.3 0 199.7 0 171.2 0C142.7 0 114.3 0 85.8 0C57.3 0 28.7 0 14.3 0L0 0Z" fill="#f35c62"></path><path d="M0 133L14.3 138.8C28.7 144.7 57.3 156.3 85.8 164.8C114.3 173.3 142.7 178.7 171.2 182C199.7 185.3 228.3 186.7 257 186.8C285.7 187 314.3 186 343 182.3C371.7 178.7 400.3 172.3 428.8 169.7C457.3 167 485.7 168 514.2 160.7C542.7 153.3 571.3 137.7 585.7 129.8L600 122L600 0L585.7 0C571.3 0 542.7 0 514.2 0C485.7 0 457.3 0 428.8 0C400.3 0 371.7 0 343 0C314.3 0 285.7 0 257 0C228.3 0 199.7 0 171.2 0C142.7 0 114.3 0 85.8 0C57.3 0 28.7 0 14.3 0L0 0Z" fill="#e64964"></path><path d="M0 122L14.3 115.8C28.7 109.7 57.3 97.3 85.8 99C114.3 100.7 142.7 116.3 171.2 123.5C199.7 130.7 228.3 129.3 257 120C285.7 110.7 314.3 93.3 343 87.7C371.7 82 400.3 88 428.8 97C457.3 106 485.7 118 514.2 116.8C542.7 115.7 571.3 101.3 585.7 94.2L600 87L600 0L585.7 0C571.3 0 542.7 0 514.2 0C485.7 0 457.3 0 428.8 0C400.3 0 371.7 0 343 0C314.3 0 285.7 0 257 0C228.3 0 199.7 0 171.2 0C142.7 0 114.3 0 85.8 0C57.3 0 28.7 0 14.3 0L0 0Z" fill="#d73666"></path><path d="M0 44L14.3 41.8C28.7 39.7 57.3 35.3 85.8 42.2C114.3 49 142.7 67 171.2 70.5C199.7 74 228.3 63 257 59.5C285.7 56 314.3 60 343 56.2C371.7 52.3 400.3 40.7 428.8 36.3C457.3 32 485.7 35 514.2 38.2C542.7 41.3 571.3 44.7 585.7 46.3L600 48L600 0L585.7 0C571.3 0 542.7 0 514.2 0C485.7 0 457.3 0 428.8 0C400.3 0 371.7 0 343 0C314.3 0 285.7 0 257 0C228.3 0 199.7 0 171.2 0C142.7 0 114.3 0 85.8 0C57.3 0 28.7 0 14.3 0L0 0Z" fill="#c62368"></path></svg>