<svg id="visual" viewBox="0 0 900 900" width="900" height="900" xmlns="http://www.w3.org/2000/svg" xmlns:xlink="http://www.w3.org/1999/xlink" version="1.1"><rect x="0" y="0" width="900" height="900" fill="#ffffff"></rect><path d="M0 227L21.5 238.7C43 250.3 86 273.7 128.8 289.7C171.7 305.7 214.3 314.3 257.2 309.2C300 304 343 285 385.8 275.8C428.7 266.7 471.3 267.3 514.2 270.2C557 273 600 278 642.8 283.7C685.7 289.3 728.3 295.7 771.2 287.8C814 280 857 258 878.5 247L900 236L900 0L878.5 0C857 0 814 0 771.2 0C728.3 0 685.7 0 642.8 0C600 0 557 0 514.2 0C471.3 0 428.7 0 385.8 0C343 0 300 0 257.2 0C214.3 0 171.7 0 128.8 0C86 0 43 0 21.5 0L0 0Z" fill="#715df2"></path><path d="M0 214L21.5 208.7C43 203.3 86 192.7 128.8 191C171.7 189.3 214.3 196.7 257.2 211.2C300 225.7 343 247.3 385.8 247.5C428.7 247.7 471.3 226.3 514.2 224.2C557 222 600 239 642.8 238.2C685.7 237.3 728.3 218.7 771.2 220C814 221.3 857 242.7 878.5 253.3L900 264L900 0L878.5 0C857 0 814 0 771.2 0C728.3 0 685.7 0 642.8 0C600 0 557 0 514.2 0C471.3 0 428.7 0 385.8 0C343 0 300 0 257.2 0C214.3 0 171.7 0 128.8 0C86 0 43 0 21.5 0L0 0Z" fill="#6c50f6"></path><path d="M0 163L21.5 166.3C43 169.7 86 176.3 128.8 184.7C171.7 193 214.3 203 257.2 195C300 187 343 161 385.8 149.2C428.7 137.3 471.3 139.7 514.2 149C557 158.3 600 174.7 642.8 183C685.7 191.3 728.3 191.7 771.2 192.8C814 194 857 196 878.5 197L900 198L900 0L878.5 0C857 0 814 0 771.2 0C728.3 0 685.7 0 642.8 0C600 0 557 0 514.2 0C471.3 0 428.7 0 385.8 0C343 0 300 0 257.2 0C214.3 0 171.7 0 128.8 0C86 0 43 0 21.5 0L0 0Z" fill="#6940fa"></path><path d="M0 166L21.5 153.8C43 141.7 86 117.3 128.8 107.5C171.7 97.7 214.3 102.3 257.2 111.2C300 120 343 133 385.8 129.3C428.7 125.7 471.3 105.3 514.2 107C557 108.7 600 132.3 642.8 144.2C685.7 156 728.3 156 771.2 156.5C814 157 857 158 878.5 158.5L900 159L900 0L878.5 0C857 0 814 0 771.2 0C728.3 0 685.7 0 642.8 0C600 0 557 0 514.2 0C471.3 0 428.7 0 385.8 0C343 0 300 0 257.2 0C214.3 0 171.7 0 128.8 0C86 0 43 0 21.5 0L0 0Z" fill="#672bfd"></path><path d="M0 90L21.5 83.8C43 77.7 86 65.3 128.8 64.8C171.7 64.3 214.3 75.7 257.2 82.5C300 89.3 343 91.7 385.8 86.2C428.7 80.7 471.3 67.3 514.2 58.7C557 50 600 46 642.8 48.5C685.7 51 728.3 60 771.2 67.5C814 75 857 81 878.5 84L900 87L900 0L878.5 0C857 0 814 0 771.2 0C728.3 0 685.7 0 642.8 0C600 0 557 0 514.2 0C471.3 0 428.7 0 385.8 0C343 0 300 0 257.2 0C214.3 0 171.7 0 128.8 0C86 0 43 0 21.5 0L0 0Z" fill="#6600ff"></path></svg>