<svg id="visual" viewBox="0 0 600 900" width="600" height="900" xmlns="http://www.w3.org/2000/svg" xmlns:xlink="http://www.w3.org/1999/xlink" version="1.1"><rect x="0" y="0" width="600" height="900" fill="#ffffff"></rect><path d="M0 463L10 477.8C20 492.7 40 522.3 60 520.5C80 518.7 100 485.3 120 436.8C140 388.3 160 324.7 180 313.8C200 303 220 345 240 342.3C260 339.7 280 292.3 300 287C320 281.7 340 318.3 360 351.8C380 385.3 400 415.7 420 421C440 426.3 460 406.7 480 382.8C500 359 520 331 540 314C560 297 580 291 590 288L600 285L600 0L590 0C580 0 560 0 540 0C520 0 500 0 480 0C460 0 440 0 420 0C400 0 380 0 360 0C340 0 320 0 300 0C280 0 260 0 240 0C220 0 200 0 180 0C160 0 140 0 120 0C100 0 80 0 60 0C40 0 20 0 10 0L0 0Z" fill="#FF6F61" stroke-linecap="round" stroke-linejoin="miter"></path></svg>