<svg id="visual" viewBox="0 0 900 900" width="900" height="900" xmlns="http://www.w3.org/2000/svg" xmlns:xlink="http://www.w3.org/1999/xlink" version="1.1"><rect x="0" y="0" width="900" height="900" fill="#e3dfd3"></rect><path d="M0 193L300 199L600 206L900 211L900 0L600 0L300 0L0 0Z" fill="#ff6f61"></path><path d="M0 157L300 171L600 161L900 166L900 0L600 0L300 0L0 0Z" fill="#f66062"></path><path d="M0 130L300 127L600 144L900 138L900 0L600 0L300 0L0 0Z" fill="#ec5163"></path><path d="M0 97L300 108L600 102L900 101L900 0L600 0L300 0L0 0Z" fill="#e04265"></path><path d="M0 78L300 69L600 76L900 69L900 0L600 0L300 0L0 0Z" fill="#d43266"></path><path d="M0 41L300 40L600 39L900 39L900 0L600 0L300 0L0 0Z" fill="#c62368"></path></svg>